<svg xmlns="http://www.w3.org/2000/svg" xmlns:xlink="http://www.w3.org/1999/xlink" width="132" height="132" viewBox="0 0 132 132"><defs><filter id="a" x="0" y="0" width="132" height="132" filterUnits="userSpaceOnUse"><feOffset dy="3" input="SourceAlpha"/><feGaussianBlur stdDeviation="10" result="b"/><feFlood flood-color="#8ed444" flood-opacity="0.161"/><feComposite operator="in" in2="b"/><feComposite in="SourceGraphic"/></filter></defs><g transform="translate(-894 -370)"><g transform="matrix(1, 0, 0, 1, 894, 370)" filter="url(#a)"><circle cx="36" cy="36" r="36" transform="translate(30 27)" fill="#8ed444"/></g><path d="M2.371,19.7,14.688,7.385a2.165,2.165,0,0,1,3.07,0l2.047,2.047a2.165,2.165,0,0,1,0,3.07l-8.721,8.74,8.73,8.73a2.165,2.165,0,0,1,0,3.07L17.768,35.1a2.165,2.165,0,0,1-3.07,0L2.38,22.781A2.167,2.167,0,0,1,2.371,19.7Z" transform="translate(947.28 411.505)" fill="#fff"/></g></svg>