<?xml version="1.0" encoding="iso-8859-1"?>
<!-- Generator: Adobe Illustrator 19.0.0, SVG Export Plug-In . SVG Version: 6.00 Build 0)  -->
<svg version="1.1" id="Capa_1" xmlns="http://www.w3.org/2000/svg" xmlns:xlink="http://www.w3.org/1999/xlink" x="0px" y="0px"
	 viewBox="0 0 512 512" style="enable-background:new 0 0 512 512;" xml:space="preserve">
<g>
	<g>
		<path d="m509.421 157.216c-2.79-4.122-7.443-6.591-12.421-6.591-70.82 0-130.605-18.84-177.692-55.995-35.171-27.752-49.771-55.977-49.892-56.213-2.54-5.082-7.734-8.292-13.416-8.292s-10.875 3.21-13.417 8.292c-.56 1.122-58.064 112.208-227.583 112.208-4.978 0-9.63 2.469-12.421 6.591-2.791 4.121-3.355 9.358-1.506 13.98l59.177 147.943v57.361c0 31.11 17.65 72.608 101.737 93.63 46.445 11.611 92.093 11.745 94.013 11.745 1.921 0 47.568-.134 94.013-11.745 84.087-21.022 101.737-62.52 101.737-93.63v-57.361l59.177-147.942c1.849-4.623 1.285-9.86-1.506-13.981zm-166.234 283.697c-42.894 10.799-86.755 10.962-87.18 10.962-.438 0-44.3-.163-87.193-10.962-42.888-10.797-68.383-27.381-76.075-49.413h326.523c-7.693 22.032-33.188 38.616-76.075 49.413zm78.563-79.413h-331.5v-30.25h331.5zm4.845-60.25h-170.595-170.594l-48.486-121.214c34.724-1.887 67.307-8.303 97.116-19.143 29.024-10.554 55.474-25.292 78.616-43.806 20.109-16.087 34.221-32.242 43.348-44.459 9.127 12.217 23.239 28.372 43.349 44.459 23.142 18.514 49.591 33.252 78.615 43.806 29.81 10.84 62.393 17.256 97.116 19.143z"/></g><g><path d="m256 271c-34.152 0-61.938-27.785-61.938-61.938s27.785-61.938 61.938-61.938 61.938 27.785 61.938 61.938-27.786 61.938-61.938 61.938zm0-93.875c-17.61 0-31.938 14.327-31.938 31.938s14.328 31.937 31.938 31.937 31.937-14.327 31.937-31.938-14.326-31.937-31.937-31.937z"/>
	</g>
</g>
<g>
</g>
<g>
</g>
<g>
</g>
<g>
</g>
<g>
</g>
<g>
</g>
<g>
</g>
<g>
</g>
<g>
</g>
<g>
</g>
<g>
</g>
<g>
</g>
<g>
</g>
<g>
</g>
<g>
</g>
</svg>
