<?xml version="1.0" encoding="iso-8859-1"?>
<!-- Generator: Adobe Illustrator 19.0.0, SVG Export Plug-In . SVG Version: 6.00 Build 0)  -->
<svg version="1.1" id="Layer_1" xmlns="http://www.w3.org/2000/svg" xmlns:xlink="http://www.w3.org/1999/xlink" x="0px" y="0px"
	 viewBox="0 0 512 512" style="enable-background:new 0 0 512 512;" xml:space="preserve">
<path d="m376.5 288.519531h-80.332031c-8.285157 0-15 6.71875-15 15v81.015625c0 8.28125 6.714843 15 15 15h80.332031c8.285156 0 15-6.71875 15-15v-81.015625c0-8.28125-6.714844-15-15-15zm-15 81.015625h-50.332031v-51.015625h50.332031zm0 0"/>
<path d="m511.421875 123.347656-21.097656-73.84375c-7.933594-27.761718-36.757813-49.503906-65.625-49.503906h-337.398438c-28.867187 0-57.691406 21.742188-65.625 49.503906l-21.097656 73.84375c-.382813 1.339844-.578125 2.726563-.578125 4.121094v48.195312c0 26.726563 16.679688 49.609376 40.167969 58.839844v190.195313c0 30.417969 24.746093 55.167969 55.167969 55.167969h321.332031c30.417969 0 55.167969-24.75 55.167969-55.167969v-190.195313c23.484374-9.230468 40.164062-32.113281 40.164062-58.839844v-48.195312c0-1.394531-.195312-2.78125-.578125-4.121094zm-460.898437-65.601562c4.222656-14.78125 21.40625-27.746094 36.777343-27.746094h337.398438c15.367187 0 32.554687 12.964844 36.777343 27.746094l15.636719 54.722656h-442.226562zm75.875 84.722656h66.402343v33.195312c0 18.308594-14.894531 33.203126-33.203125 33.203126-18.304687 0-33.199218-14.894532-33.199218-33.203126zm96.402343 0h66.398438v33.195312c0 18.308594-14.894531 33.203126-33.199219 33.203126s-33.199219-14.894532-33.199219-33.203126zm96.398438 0h66.398437v33.195312c0 18.308594-14.890625 33.203126-33.199218 33.203126-18.304688 0-33.199219-14.894532-33.199219-33.203126zm-289.199219 33.195312v-33.195312h66.398438v33.195312c0 18.308594-14.890626 33.203126-33.199219 33.203126-18.304688 0-33.199219-14.894532-33.199219-33.203126zm120.5 274.203126v-90.5h50.335938v90.5zm266.167969 0h-185.832031v-105.5c0-8.28125-6.71875-15-15-15h-80.335938c-8.28125 0-15 6.71875-15 15v105.5h-25.164062c-13.878907 0-25.167969-11.289063-25.167969-25.167969v-186.222657c16.46875-1.816406 31.046875-9.984374 41.230469-21.996093 11.605468 13.679687 28.898437 22.386719 48.199218 22.386719 19.300782 0 36.601563-8.707032 48.203125-22.386719 11.601563 13.679687 28.898438 22.386719 48.199219 22.386719s36.597656-8.707032 48.199219-22.386719c11.601562 13.679687 28.898437 22.386719 48.199219 22.386719 19.300781 0 36.597656-8.707032 48.199218-22.386719 10.1875 12.011719 24.765625 20.179687 41.234375 21.996093v186.222657c.003907 13.878906-11.289062 25.167969-25.164062 25.167969zm32.132812-241c-18.308593 0-33.199219-14.894532-33.199219-33.199219v-33.199219h66.398438v33.199219c0 18.304687-14.894531 33.199219-33.199219 33.199219zm0 0"/>

</svg>
